<?xml version="1.0" encoding="utf-8"?>
<!-- Generator: Adobe Illustrator 16.0.0, SVG Export Plug-In . SVG Version: 6.00 Build 0)  -->
<!DOCTYPE svg PUBLIC "-//W3C//DTD SVG 1.1//EN" "http://www.w3.org/Graphics/SVG/1.1/DTD/svg11.dtd">
<svg version="1.1" id="Layer_1" xmlns="http://www.w3.org/2000/svg" xmlns:xlink="http://www.w3.org/1999/xlink" x="0px" y="0px"
	 width="863.384px" height="1000px" viewBox="0 0 863.384 1000" enable-background="new 0 0 863.384 1000" xml:space="preserve">
<g>
	<path fill-rule="evenodd" clip-rule="evenodd" d="M640.551,56.839C586.274,26.575,525.224,0,431.694,0h-0.01
		c-93.53,0-154.569,26.575-208.835,56.839C73.703,139.998,0,300.436,0,499.99h0.011L0,500c0,199.564,73.703,359.996,222.85,443.146
		C277.115,973.414,338.154,1000,431.685,1000h0.01c93.529,0,154.58-26.586,208.856-56.854
		c149.135-83.15,222.833-243.582,222.833-443.157C863.384,300.436,789.686,139.998,640.551,56.839"/>
	<path fill-rule="evenodd" clip-rule="evenodd" fill="#FFFFFF" d="M623.583,935.492c-49.957,29.715-106.177,55.83-192.268,55.83
		h-0.01c-86.101,0-142.295-26.137-192.268-55.83C101.727,853.795,33.887,696.197,33.887,500.174
		c0-196.034,67.86-353.617,205.183-435.312C289.031,35.145,345.226,9.056,431.315,9.056h0.021
		c86.102,0,142.301,26.089,192.258,55.816C760.9,146.577,828.756,304.156,828.756,500.174
		C828.756,696.207,760.89,853.816,623.583,935.492"/>
	<path d="M777.17,440.479c-0.94-2.62-4.87,0.946-11.449,1.028c-6.09,0.097-8.955-3.07-9.128-9.147
		c-0.062-2.63-1.055-4.662-3.726-2.732c-5.127,3.699-7.695,5.709-15.615,4.23c-3.326-0.64-5.138-1.269-8.156-2.768
		c-1.74-0.859-3.715-2.43-4.717-4.073c-1.597-2.649-3.11-4.235-6.426-2.118c-5.343,3.377-6.979,3.659-17.673,4.989
		c-3.398,0.419-8.361,1.018-11.399-0.138c-2.518-0.973-4.063-0.262-6.171,0.378c-5.914,1.739-11.85,3.377-17.847,4.728
		c-2.968,0.691-4.789-0.65-5.638-3.961c-1.792-6.887-3.787-13.747-6.242-20.414c-3.869-10.387-8.228-20.589-12.331-30.878
		c-4.093-10.259-8.688-20.154-14.797-29.522c-8.514-13.063-18.48-24.569-31.17-33.425c-5.946-4.17-12.771-7.859-19.729-9.63
		c-10.979-2.752-22.246-1.862-33.4,1.101c-13.742,3.669-24.887,11.097-33.083,22.384c-7.449,10.239-13.947,21.146-20.793,31.8
		c-3.418,5.347-5.138,5.208-8.565-0.154c-2.241-3.488-4.871-6.958-7.972-9.654c-6.294-5.459-13.14-10.234-19.565-15.54
		c-7.951-6.539-12.894-14.597-12.023-25.429c0.45-5.628,2.711-8.949,8.381-9.276c7.623-0.43,15.237-1.31,22.881-1.611
		c12.617-0.471,25.265-1.06,37.883-0.798c10.488,0.22,20.987,2.398,31.456,2.2c8.155-0.143,16.219-3.029,24.436-3.863
		c4.646-0.487,8.115-2.38,11.533-5.097c4.84-3.842,6.386-8.872,2.834-14.019c-4.104-5.93-8.882-10.458-13.886-15.667
		c-0.818-0.839-1.443-1.591-1.934-2.303h-0.011c-1.811-2.641-1.443-4.621,1.771-7.388c4.205-3.628,8.688-6.969,12.627-10.857
		c1.781-1.78,2.507-4.63,3.899-6.881c0.962-1.576,1.975-3.387,3.458-4.318c4.606-2.871,7.736-3.678,13.14-3.259
		c1.822,0.139,7.593,0.271,9.742-2.62c1.556-2.098,4.993-2.922,7.613-2.891c3.643,0.021,6.846-0.967,10.284-1.96
		c5.944-1.698,7.808-7.797,11.389-12.008c3.736-4.36,6.724-9.399,10.602-13.595c2.987-3.203,4.861-6.662,5.107-10.831
		c0.204-3.091-1.055-9.307-2.743-8.827c-1.679,0.497-0.133,2.63-0.409,5.925c-0.297,3.72-0.87,6.923-3.889,9.364
		c-2.834,2.338-7.43,4.676-10.848-1.141c-2.486-2.22-3.049,0.737-0.94,5.668c3.315,7.798-5.22,18.066-12.177,20.278
		c-4.842,1.529-6.909,1.1-11.769,2.078c-5.403,1.073-10.315,1.693-16.7,2.762c-6.201,1.039-6.038,1.1-11.155,4.861
		c-1.882,1.386-3.273,3.847-6.651,4.988c-2.997,1.028-4.451,5.188-5.842,7.266c-2.641,3.97-6.008,5.888-10.295,10.893
		c-1.75,2.046-4.482,2.634-6.304,2.537c-0.051,0.281-3.019-1.31-3.019-1.31c-14.061-9.589-28.458-18.578-44.534-24.519
		c-2.957-1.101-3.868-3.039-2.179-5.47c4.666-6.758,2.076-13.559,0.419-20.308c-0.982-4.058-0.123-7.019,3.101-9.818
		c3.571-3.101,6.764-6.688,9.905-10.279c0.921-1.06,1.474-2.906,1.27-4.256c-0.103-0.619-2.354-1.132-3.685-1.331
		c-1.832-0.261-3.704-0.23-5.566-0.23c-5.966,0.01-6.487,1.182-4.81,6.708c0.634,2.062-0.256,5.112-1.474,7.102
		c-1.361,2.221-4.012,2.85-6.651,1.279c-2.026-1.213-4.227-2.169-6.099-3.582c-6.059-4.559-12.699-1.98-10.028,0.891
		c2.486,0.368,4.666,0.542,7.173,1.642c8.627,3.806,13.62,11.057,16.322,19.703c1.801,5.782-2.324,13.933-10.193,11.522
		c-5.341-1.642-10.703-3.98-15.277-7.143c-4.666-3.218-6.61-8.509-7.163-14.429c-0.89-10.018,7.654-19.566,9.64-21.715
		c2.313-2.521,5.577-3.822,8.188-6.027c1.299-1.095,3.713-3.474,5.167-4.61c7.47-5.96,11.604-11.149,17.437-17.979
		c4.902-5.69,8.258-12.73,12.014-19.346c0.89-1.571,1.228-3.91,0.839-5.679c-0.378-1.75-2.016-3.214-3.1-4.799
		c-1.516,1.366-3.685,2.455-4.411,4.149c-1.575,3.668-1.935,7.875-3.673,11.435c-2.19,4.513-5.046,8.791-8.014,12.858
		c-3.366,4.538-6.866,9.062-10.898,12.991c-4.686,4.559-10.018,8.457-15.052,12.667c-2.354,1.971-4.852,2.589-8.023,2.159
		c-1.883-0.25-4.286,0.83-5.995,1.991c-3.757,2.579-6.878,6.328-10.93,8.216c-4.769,2.231-10.182,3.332-15.401,4.329
		c-14.566,2.753-27.408-0.987-38.245-11.159c-1.812-1.708-3.499-2.476-6.017-1.846c-5.061,1.259-9.261,0.041-12.449-4.492
		c-2.189-3.117-4.559-6.269-7.449-8.667c-5.74-4.799-9.951-10.719-13.907-16.926c-0.542-0.869-1.36-1.56-1.903-2.419
		c-2.968-4.61-6.186-9.072-8.718-13.917c-2.099-4.042-3.188-8.601-5.127-12.729c-0.45-0.952-2.829-1.832-3.813-1.443
		c-1.038,0.394-2.02,2.363-2.01,3.643c0,2.017,0.43,4.308,1.463,5.997c3.734,6.021,7.736,11.901,11.748,17.739
		c3.499,5.09,5.72,10.95,10.488,15.328c4.171,3.848,7.42,8.678,11.298,12.869c3.729,4.047,12.816,12.388,13.226,12.889
		c2.031,2.39,4.451,4.579,5.899,7.286c2.681,4.963,3.172,10.519-0.477,15.078c-5.729,7.174-12.228,11.589-21.268,13.461
		c-7.43,1.551-11.697-4.979-9.979-10.56c3.091-10.147,12.837-16.337,19.525-18.277c1.519-0.45,3.632-0.992,4.748-2.103
		c1.212-1.228-0.508-2.589-1.218-2.855c-1.393-0.511-4.34-0.26-5.669,0.266c-2.538,1.003-3.772,2.093-6.141,3.521
		c-4.569,2.751-7.388,2.117-10.146-2.549c-0.793-1.33-1.265-2.88-1.632-4.39c-1.771-7.168-1.74-7.168-9.2-8.196
		c-0.92-0.123-1.837-0.47-2.737-0.47c-4.892-0.031-5.07,2.599-2.65,5.029c4.298,4.318,8.396,8.868,12.96,12.925
		c3.178,2.818,3.459,5.898,1.638,9.122c-3.479,6.196-4.328,12.275-0.987,18.834c1.259,2.491,0.767,4.692-2.431,5.951
		c-3.889,1.53-13.108,6.779-17.856,9.547c-11.083,6.482-13.641,8.298-24.446,15.268c-5.225,3.361-10.162,0.512-13.001-2.036
		c-3.89-3.479-5.598-5.439-7.931-12.792c-0.641-2.036-3.198-4.216-4.866-4.737c-2.462-0.789-5.061-1.269-7.541-2.042
		c-8.259-2.569-16.379-5.556-24.677-8.018c-5.107-1.519-10.597-1.877-15.586-3.638c-8.569-3.04-11.338-9-9.849-18.097
		c0.481-2.819-0.533-6.472-0.661-8.78c-0.061-1.259-0.802-2.92-1.498-2.799c-0.973,0.2-1.202,1.039-1.202,3.838
		c0,3.131-5.92,0.251-7.829-1.479c-2.251-2.031-2.818-2.81-5.312-6.549c-1.99-2.108-2.445,0.128-2.148,0.691
		c2.38,4.467,4.4,9.235,7.44,13.226c4.921,6.478,10.187,12.617,11.727,20.967c0.199,1.101,1.32,2.409,2.344,2.891
		c3.785,1.771,7.607,3.597,11.608,4.671c2.59,0.716,5.557-0.112,8.258,0.297c1.136,0.169,3.449,2.671,3.767,3.28
		c1.232,2.271,3.623,3.197,5.541,3.448c3.142,0.373,3.162,0.02,6.37,0.22c9.066,0.573,12.929,6.769,13.405,7.208
		c5.382,5.209,10.74,10.448,16.208,15.559c2.683,2.493,2.201,4.611,0,7.082c-4.005,4.508-8.375,8.816-11.654,13.826
		c-4.789,7.301-4.462,16.607,6.759,20.22c12.229,3.929,24.783,3.648,37.345,3.279c11.088-0.301,22.196-1.693,33.231-1.263
		c16.282,0.624,29.779,1.79,45.957,3.643c4.851,0.558,7.68,3.766,8.299,6.33c0.88,3.709,0.998,6.625,0.67,10.468
		c-0.992,11.845-9.972,17.847-18.68,23.377c-7.809,4.958-14.588,10.627-19.704,18.307c-2.731,4.118-4.271,4.128-6.642-0.093
		c-4.998-8.958-8.099-14.817-13.098-23.775c-7.68-13.8-20.937-26.157-36.133-30.234c-11.962-3.233-23.147-3.623-35.35-0.262
		c-8.259,2.278-16.588,8.366-19.837,10.95c-9.547,7.598-16.557,14.986-24.733,25.415c-2.84,3.643-13.052,16.91-21.771,33.338
		c-7.996,15.135-14.429,34.916-18.526,51.493c-1.208,4.896-3.47,6.529-8.187,4.999c-3.991-1.289-7.772-3.202-11.702-4.629
		c-1.929-0.702-4.189-1.633-6.017-1.218c-7.27,1.617-12.459,0.64-19.33-1.463c-3.868-1.197-8.867-0.067-13.625,2.189
		c-4.682,2.21-8.223,2.523-12.029,3.393c-3.06,0.691-6.278,1.049-9.337,1.75c-3.501,0.798-6.77,0.937-9.158-2.609
		c-0.932-1.381-2.364-2.542-3.822-3.403c-0.769-0.48-2.988-1.289-1.658,1.873c0.818,2.979,1.688,3.587,1.377,5.91
		c-0.538,3.796-4.018,5.536-8.346,6.759c-4.39,1.238-8.212,0.086-12.183-1.761c-3.516-1.622-3.607,0.65-2.415,2.078
		c4.877,4.999,13.625,6.037,20.374,3.991c3.92-1.192,7.481-3.029,11.308-4.651c5.142-2.179,10.361-2.937,15.62-4.875
		c2.287-0.824,4.759-1.382,7.189-1.591c0.952-0.081,3.197,0.517,4.181,0.9c3.52,1.397,5.879,1.75,11.204-0.471
		c3.664-1.53,6.76-1.182,10.72,0.957c3.571,1.944,8.298,1.782,11.532,1.684c6.948-0.2,8.258,1.617,14.705,3.868
		c3.192,1.101,4.912,4.559,4.41,7.818c-1.141,7.24-2.881,14.429-3.76,21.709c-1.51,12.546-3.249,25.127-3.649,37.734
		c-0.368,12.26,0.44,24.586,1.438,36.813c0.921,11.503,1.831,23.128,4.39,34.327c3.812,16.66,8.959,33.027,13.708,49.48
		c0.93,3.234,1.13,6.244-0.84,8.924c-4.656,6.305-5.086,13.744-3.347,20.447c2.948,11.428,7.548,22.439,11.559,33.604
		c0.818,2.303,2.246,4.4,3.167,6.682c3.689,9.283,6.391,15.555,10.351,25.738c-1.99,1.248-3.653,2.188-7.542,3.766
		c-2.905,1.176-6.707,0.869-10.605,2.117c-4.81,1.555-8.361,2.098-12.858,1.525c-5.751-0.717-11.63-1.322-16.102,4.041
		c-1.019,1.219-3.208,1.688-4.968,2.088c-6.519,1.441-13.165,2.404-19.627,4.104c-5.449,1.412-10.27,4.217-13.037,9.486
		c-0.701,1.309-1.811,4.932-0.123,4.859c0.753-0.031,1.162-1.473,1.735-2.158c4.128-4.922,10.437-9.23,17.646-6.959
		c3.259,1.023,5.828,2.404,5.838,6.406c0.011,0.799,0.292,2.508,1.581,2.404c0.986,0.35,2.046-0.951,2.39-1.74
		c0.921-2.148,1.519-4.439,2.158-6.701c1.208-4.236,4.871-4.145,9.558-4.268c1.132-0.029,4.569,0.266,5.721-0.113
		c3.449-1.207,3.489-1.77,5.06-2.689c4.708-2.744,13.77-1.914,16.046-1.158c1.862,0.625,4.723,0.236,6.391-0.828
		c6.938-4.473,10.76-5.506,18.809-6.068c5.617-0.379,7.787-2.354,6.866-8.043c-1.136-6.906-7.46-19.516-11.456-25.092
		c-11.271-15.646-15.329-24.732-20.63-39.662c-4.519-12.73,1.023-17.16,1.832-14.973c2.496,5.127,3.889,8.402,6.569,13.418
		c7.056,13.158,13.369,26.799,21.587,39.223c13.277,20.148,28.667,38.781,46.335,55.338c8.509,7.973,17.268,15.791,26.575,22.789
		c10.795,8.137,22.414,15.145,34.705,20.877c6.861,3.191,13.645,6.834,20.828,9.045c7.696,2.385,15.688,4.482,23.757,4.994
		c8.77,0.594,14.756-0.594,21.807-2.262c5.178-1.229,9.757-1.771,14.72,0.135c8.463,3.252,17.314,3.795,26.095,2.271
		c7.705-1.322,15.298-3.439,22.778-5.752c6.498-2.016,13.057-4.195,19.043-7.357c10.244-5.414,20.221-11.369,30.004-17.592
		c8.422-5.352,16.711-11,24.477-17.242c6.028-4.85,11.268-10.734,16.722-16.281c6.569-6.67,13.098-13.393,19.402-20.301
		c1.441-1.576,4.624-5.525,5.995-7.205c4.451-5.381,6.806-8.932,10.561-14.674c11.83-18.01,18.554-32.459,27.466-48.883
		c3.131-5.801,5.495-12.025,8.217-18.035c1.883-4.113,4.329,1.248,4.391,1.898c0.675,5.986-0.287,9.619-2.855,14.971
		c-2.917,6.078-6.621,11.789-9.885,17.682c-1.341,2.395-2.354,4.943-3.746,7.275c-5.064,8.422-10.692,16.537-15.237,25.225
		c-3.734,7.184-8.053,14.439-7.95,22.994c0.011,1.924-0.204,6.887,6.918,5.762c2.333-0.369,5.105-0.094,6.968,1.014
		c7.45,4.439,15.013,4.654,23.015,1.965c3.274-1.107,6.478-1.568,9.978,0.5c4.522,2.672,8.861,6.047,14.622,6.119
		c6.008,0.063,9.875,3.848,11.718,9.588c0.869,2.65,3.028,5.025,5.014,7.113c1.729,1.842,2.886,0.379,3.101-1.506
		c0.153-1.268-0.399-2.598-0.41-3.928c-0.02-3.604,4.156-3.98,7.665-3.174c5.291,1.229,8.392,4.965,10.52,8.688
		c0.471,0.789,1.74,3.818,3.469,2.652c1.536-1.045-1.555-6.479-3.714-10.828c-1.413-2.791-5.414-5.871-8.678-6.416
		c-4.933-0.838-9.793-1.104-14.592-3.324c-3.49-1.609-9.16-2.426-10.725-3.531c-6.14-4.225-10.521-5.639-19.402-6.488
		c-2.64-0.254-5.639-1.299-8.339-1.76c-2.62-0.459-5.659-1.217-8.341-1.412c-3.52-0.215-6.712,0.268-10.213-0.082
		c-2.302-0.215-2.015-2.23-1.779-3.121c1.166-4.688,2.363-9.445,4.267-13.865c7.204-16.783,14.603-33.492,22.053-50.162
		c4.358-9.711,5.617-19.301-1.259-28.299c-3.07-4.021-2.671-7.799-1.463-12.229c4.613-17.078,9.557-34.129,13.262-51.432
		c2.395-11.139,3.643-22.66,3.97-34.065c0.819-28.08,1.239-56.226-4.922-83.932c-0.88-3.98,0.173-5.597,4.072-6.477
		c6.887-1.54,10.878-4.012,18.062-1.699c2.835,0.927,6.272,0.287,10.448-2.732c1.002-0.758,2.527-2.201,4.062-2.681
		c5.229-1.658,10.233-0.788,15.237,1.331c3.315,1.421,6.13,1.75,8.771-0.911c1.063-1.09,3.1-1.689,4.737-1.1
		c5.014,1.821,9.148,3.488,14.233,5.07c3.562,1.09,7.645,0.932,10.898,2.532c6.059,3.01,12.157,3.117,18.338,1.48
		C774.132,445.095,778.654,442.598,777.17,440.479 M500.746,232.924c1.484-2.728,5.158-4.508,9.139-2.938
		c5.997,2.349,13.354,6.109,22.81,11.916c7.122,4.369,10.97,6.892,13.896,9.431c1.556,1.34,0.368,2.491-0.584,2.691
		c-0.869,0.188-1.852,0.02-2.742-0.154c-8.903-1.76-17.068,0.773-24.364,5.331c-3.694,2.308-5.854,1.93-9.016-0.342
		c-4.462-3.189-8.606-5.086-13.129-8.207c-0.768-0.522-2.118-1.582-3.418-2.691c-1.423-1.939,0.44-4.267,1.188-5.439
		C496.572,239.304,498.914,236.254,500.746,232.924 M371.606,247.961c-1.284,1.109-2.641,2.169-3.402,2.691
		c-4.528,3.121-8.668,5.018-13.108,8.207c-3.188,2.271-5.347,2.649-9.036,0.342c-7.302-4.558-15.463-7.091-24.359-5.331
		c-0.911,0.174-1.878,0.343-2.748,0.154c-0.951-0.2-2.149-1.352-0.583-2.691c2.911-2.539,6.77-5.062,13.891-9.431
		c9.477-5.807,16.808-9.567,22.814-11.916c3.98-1.57,7.649,0.209,9.149,2.938c1.821,3.33,4.159,6.38,6.211,9.598
		C371.191,243.694,373.044,246.022,371.606,247.961 M402.5,219.498c-6.917,0.68-15.528,1.97-20.887,3.551
		c-2.619,0.788-5.352,1.187-8.068,1.658c-1.171,0.209-4.093,1.407-2.799-0.533c18.466-15.058,103.467-15.543,124.157-0.128
		c2.231,1.888-2.619,0.65-3.929,0.43c-12.157-1.99-22.595-5.357-39.96-6.099C434.796,217.687,420.126,217.707,402.5,219.498"/>
	<path fill="#F04E23" d="M427.171,509.787c-0.062,11.518,0.297,23.029,0.276,34.547c-0.051,25.424-0.255,50.853-0.368,76.277
		c-0.04,8.33,0.185,16.68,0.072,25.025c-0.225,19.205-0.686,38.414-0.804,57.621c-0.071,11.145,0.558,22.287,0.517,33.432
		c-0.076,18.297-0.537,36.592-0.629,54.898c-0.021,6.889-2.118,10.387-8.55,13.09c-9.348,3.918-19.064,3.449-28.203,0.695
		c-13.548-4.063-26.887-9.047-39.888-14.633c-7.648-3.254-14.652-8.146-21.653-12.762c-11.281-7.48-22.276-15.42-31.487-25.449
		c-10.707-11.686-21.396-23.443-31.496-35.65c-7.147-8.637-14.05-17.643-19.668-27.271c-7.93-13.631-14.925-27.863-21.627-42.139
		c-4.268-9.078-7.69-18.605-10.668-28.184c-3.459-11.061-6.381-22.316-8.857-33.646c-3.75-17.079-6.349-34.397-6.56-51.932
		c-0.153-14.163-0.01-28.361,0.927-42.478c0.763-11.697,2.472-23.377,4.533-34.946c1.889-10.658,4.41-21.264,7.389-31.687
		c3.52-12.326,7.208-24.657,11.85-36.614c11.057-28.397,33.135-54.025,43.361-63.9c2.609-2.542,9.358-7.751,13.027-10.069
		c2.21-1.5,6.16-3.49,6.81-3.801c9.492-4.508,22.277-5.598,34.506-3.157c11.537,2.317,22.026,8.739,29.737,16.885
		c10.156,10.708,16.22,24.559,21.797,39.157c5.668,14.796,13.548,30.325,26.416,40.625c7.389,5.909,15.196,11.148,24.794,12.669
		c3.271,0.526,4.692,2.041,4.754,5.167c0.103,4.769,0.286,9.543,0.255,14.301C427.57,460.506,427.284,485.142,427.171,509.787"/>
	<path fill="#F04E23" d="M663.145,469.245c1.197,9.695,2.712,29.174,2.518,29.205c0,12.269,0.266,24.575-0.123,36.844
		c-0.236,7.751-1.156,15.528-2.385,23.198c-1.657,10.375-3.356,20.789-6.058,30.924c-3.807,14.209-8.104,28.309-13.037,42.176
		c-3.816,10.82-8.493,21.381-13.528,31.717c-6.364,13.066-13.385,25.725-23.954,41.566c-6.171,9.26-11.441,13.877-18.594,22.359
		c-6.642,7.879-13.661,15.502-21.265,22.451c-9.271,8.504-19.063,16.516-29.123,24.078c-5.516,4.164-12.013,7.029-18.133,10.387
		c-8.657,4.736-17.212,9.648-26.084,13.957c-4.687,2.242-9.915,3.336-14.899,4.953c-1.626,0.521-3.243,1.074-4.881,1.596
		c-8.924,2.783-18,4.084-27.281,2.271c-6.017-1.176-12.525-5.934-12.413-13.744c0.215-16.045-0.214-32.068-0.348-48.123
		c-0.112-11.512-0.266-23.035-0.245-34.568c0.01-16.701,0.245-33.41,0.194-50.131c-0.041-14.264-0.461-28.561-0.542-42.855
		c-0.195-33.27-0.246-66.536-0.431-99.809c-0.163-24.789-0.512-49.583-0.686-74.368c-0.02-6.871,0.378-13.754,0.378-20.63
		c0.011-3.827,1.639-5.771,5.425-6.518c17.027-3.362,29.542-13.38,38.415-27.778c6.17-10.018,11.899-20.717,18.07-30.725
		c9.804-15.897,18.348-33.928,35.406-41.966c11.257-5.291,22.472-8.059,34.864-7.409c9.711,0.522,18.45,3.249,26.277,8.887
		c12.465,8.98,23.321,19.53,31.252,32.838c11.952,20.087,21.838,41.173,28.622,63.552
		C656.073,431.817,660.812,450.277,663.145,469.245"/>
	<path fill-rule="evenodd" clip-rule="evenodd" d="M389.474,555.897c0,4.851-0.272,9.717,0.081,14.536
		c0.241,3.11,1.141,6.232,2.18,9.21c3.879,11.179-1.101,25.419-11.297,31.583c-3.06,1.832-6.12,3.773-9.43,5.01
		c-7.858,2.912-15.038-0.389-21.606-3.986c-17.929-9.828-31.129-23.908-35.3-44.554c-2.257-11.298-0.327-22.17,7.649-31.245
		c3.49-3.961,7.071-7.881,10.729-11.729c6.231-6.621,11.987-7.491,20.44-4.031c6.846,2.768,13.958,4.87,20.936,7.32
		c7.63,2.676,11.917,8.699,14.599,15.766C389.883,547.537,389.831,555.887,389.474,555.897"/>
	<path fill-rule="evenodd" clip-rule="evenodd" d="M276.255,379.046c1.72-6.187,0.701-15.268,7.348-20.594
		c6.462-5.199,14.11-9.127,21.688-12.648c3.428-1.612,7.7,0.067,10.218,3.5c2.819,3.889,2.953,8.269,0.66,12.407
		c-2.728,4.958-5.745,9.727-8.806,14.485c-0.823,1.274-2.17,2.303-3.423,3.214c-3.729,2.716-7.255,5.939-11.379,7.817
		c-3.525,1.592-7.768,2.201-11.666,2.119C277.514,389.259,276.086,385.739,276.255,379.046"/>
	<path fill-rule="evenodd" clip-rule="evenodd" d="M431.735,159.486c5.945,0,15.534,0.66,24.773,10.586
		c2.375,2.543,1.997,5.68-1.463,8.028c-8.77,5.961-18.521,7.563-28.949,6.17c-6.896-0.921-12.447-2.507-18.829-7.188
		C399.502,172.104,415.67,159.486,431.735,159.486"/>
	<path fill-rule="evenodd" clip-rule="evenodd" d="M344.468,682.279c-22.246-20.373-37.743-45.266-48.734-73.057
		c-10.447-26.396-16.5-53.714-15.999-82.29C283.454,586.162,306.043,637.455,344.468,682.279"/>
	<path d="M240.471,350.383c0.062-0.102,0.123-0.21,0.179-0.333c-0.087,0.092-0.169,0.178-0.271,0.261L240.471,350.383z"/>
	<path fill-rule="evenodd" clip-rule="evenodd" d="M547.112,550.812c-0.297,13.186-2.702,26.044-10.469,36.864
		c-8.698,12.127-19.994,20.957-35.907,21.715c-2.854,0.145-5.648,1.488-8.524,1.643c-15.042,0.869-25.316-10.373-21.898-25.127
		c2.036-8.73,1.72-16.879-0.215-25.408c-1.801-7.9-1.811-15.867,3.284-22.865c1.433-1.99,2.989-4.202,5.025-5.399
		c6.682-4,13.855-7.229,20.394-11.45c4.984-3.229,10.172-4.738,15.944-5.157c10.438-0.782,19.012,10.907,25.224,17.165
		C544.555,537.411,547.716,543.604,547.112,550.812"/>
	<path fill-rule="evenodd" clip-rule="evenodd" d="M521.305,715.373c-0.521,7.113-0.214,12.148-1.35,16.805
		c-2.426,9.771-8.791,16.854-16.732,22.91c-8.718,6.672-19.033,9.66-29.051,13.25c-5.844,2.109-11.268-0.254-13.999-4.676
		c-2.609-4.213-1.873-10.957,1.504-15.285c3.408-4.381,6.467-8.863,8.033-14.41c1.248-4.398,3.356-8.637,5.558-12.668
		c1.073-1.977,2.966-3.848,4.941-4.943c5.157-2.875,10.632-5.178,15.83-7.982c2.968-1.604,5.977-3.436,8.412-5.738
		c5.648-5.354,10.959-4.82,14.111,2.332C520.271,708.855,520.783,713.275,521.305,715.373"/>
	<path fill-rule="evenodd" clip-rule="evenodd" d="M602.852,552.629c0.205-3.838,0.777-7.696,0.532-11.508
		c-0.398-6.018-0.573-12.218-2.241-17.938c-3.019-10.417,0.635-18.015,8.125-24.753c3.203-2.892,6.262-6.023,9.046-9.323
		c3.612-4.288,8.575-4.856,12.75-1.157c11.298,10.06,15.401,22.364,10.633,36.854c-3.725,11.277-8.094,22.359-12.546,33.396
		c-1.893,4.707-5.752,7.787-10.561,9.67c-7.899,3.106-17.16-2.829-15.892-11.271c0.204-1.3,0.041-2.651,0.041-3.97H602.852z"/>
	<path fill-rule="evenodd" clip-rule="evenodd" d="M591.053,371.555c0,1.188,0.021,2.38-0.011,3.572
		c-0.081,7.347-5.903,11.046-12.483,7.925c-6.539-3.101-13.077-6.237-19.606-9.348c-5.475-2.6-8.494-6.979-9.435-12.858
		c-0.512-3.269-1.197-6.539-1.229-9.839c-0.112-7.849,4.186-12.27,12.709-10.826c2.498,0.429,4.841,1.96,7.184,3.156
		c2.825,1.433,5.444,3.342,8.371,4.508c9.64,3.874,14.878,11.65,14.541,22.119c-0.02,0.532,0,1.06,0,1.591H591.053z"/>
	<path fill-rule="evenodd" clip-rule="evenodd" d="M599.157,662.1c1.014,7.43-0.572,14.236-3.581,21.121
		c-4.952,11.34-14.234,16.682-25.286,19.801c-4.983,1.393-10.878-4.063-9.619-9.146c2.333-9.486,3.315-19.607,12.976-25.787
		c3.592-2.303,5.822-6.744,8.637-10.232c1.76-2.148,3.326-4.463,5.239-6.469c1.514-1.598,3.295-3.131,5.904-1.893
		c2.589,1.238,5.004,2.486,5.147,5.893C598.666,657.629,598.974,659.859,599.157,662.1"/>
	<path fill-rule="evenodd" clip-rule="evenodd" d="M247.424,471.194c-1.101,9.865-0.993,8.259-1.643,18.154
		c-0.199,3.08,0.133,4.953,1.392,7.931c0.471,1.099,1.857,2.159,3.05,2.389c1.15,0.23,3.785,0.041,4.38-2.86
		c1.166-5.019,1.397-6.61,2.287-11.696c0.383-2.19,0.742-5.301,1.382-3.458c-0.533,3.49-1.162,7.045-1.571,12.157
		c-0.641,5.719-0.298,9.138,3.203,14.878c3.985,6.529,2.547,13.625,1.498,20.568c-1.14,7.525-1.401,14.935-0.103,22.543
		c1.393,8.059,1.02,16.439,2.759,24.396c4.012,18.439,9.88,36.244,18.082,53.375c7.577,15.852,15.573,31.404,26.463,45.17
		c8.708,10.988,18.378,21.201,27.7,31.68c1.335,1.494,3.418,3.9,5.219,1.607c1.237-1.578,1.606-4.943,0.758-6.775
		c-1.28-2.783-3.798-5.084-6.048-7.307c-11.737-11.502-21.25-24.742-30.146-38.445c-11.549-17.768-20.769-36.689-27.338-56.885
		c-5.961-18.398-9.799-37.166-10.428-56.542c-0.21-6.149,0.338-17.479,0.987-17.417c1.853,0.189-4.379,22.456,14.352,79.148
		c6.329,15.818,13.207,31.654,21.904,46.262c7.792,13.129,18.358,24.611,27.798,36.758c2.032,2.619,4.42,4.932,6.631,7.428
		c3.525,3.941,7.367,7.316,13.048,7.521c13.865,3.225,16.306,8.27,23.525,12.822c2.86,1.813,4.748,5.209,7.081,7.891
		c2.979,3.408,7.219,13.764,8.278,16.127c0.64,1.434,5.94,10.037,7.506,16.465c2.134,9.74-2.665,16.945-13.604,16.189
		c-10.591-1.639-20.967-4.115-29.39-11.195c-19.406-16.271-39.474-31.783-56.599-50.623c-1.643-1.832-4.672-2.957-7.219-3.316
		c-3.402-0.461-4.323,1.311-2.805,4.371c0.404,0.828,0.922,1.637,1.515,2.342c14.607,17.305,30.956,32.787,49.799,45.383
		c9.584,6.387,16.379,10.939,26.657,16.098c6.263,3.141,11.149,5.475,19.028,7.082c2.23,0.643,3.438,0.889,5.699,1.473
		c1.039,0.369,1.971,0.941-0.619,0.91c-5.868-0.91-5.898-0.84-11.619-2.518c-21.668-6.354-39.725-18.951-57.161-32.879
		c-14.745-11.756-27.286-25.459-39.576-39.6c-13.078-15.053-22.896-32.111-32.137-49.529
		c-14.675-27.598-24.913-56.875-30.172-87.696c-3.413-20.118-6.073-40.456-5.229-60.933c0.727-17.759,6.595-49.364,11.026-66.652
		c0.103-0.45,1.069-1.617,1.32-0.118c-0.569,4.098-4.012,21.125-4.451,25.234c-1.02,9.481-2.917,18.966-3.68,28.488
		c-0.065,6.749,3.939,2.609,4.923,1.479c1.938-2.22,4.119-6.938,4.978-10.708c3.521-15.349,2.329-12.05,5.899-26.959
		c0.492-1.816,1.29-1.909,1.459-0.439c-0.39,1.948-0.819,3.873-1.167,5.833c-2.041,11.087-1.023,9.797-1.853,14.796
		c-0.117,0.64-0.199,1.31-0.229,1.969c-0.169,2.968,1.201,4.897,4.077,5.47c2.963,0.62,4.554-1.151,5.111-3.761
		c1.51-7.138,1.09-3.397,2.538-10.549c0.281-1.408,0.66-2.79,0.992-4.196C246.994,470.569,247.521,469.961,247.424,471.194
		 M344.141,723.365c-0.849-1.82-1.33-3.723-2.45-5.076c-4.181-4.963-8.299-10.057-12.95-14.541
		c-12.407-11.992-22.497-25.756-31.906-40.08c-12.505-19.045-22.478-39.367-29.614-61.018c-3.061-9.314-5.26-18.893-7.962-28.313
		c-0.598-2.021-0.798-5-4.057-4.359c-2.861,0.578-4.17,2.589-3.617,5.638c0.706,3.761,1.114,7.608,1.995,11.317
		c3.254,13.85,7.961,27.18,13.778,40.186c8.069,18.066,16.858,35.574,28.479,51.764c9.649,13.477,21.336,24.969,32.326,37.166
		c2.927,3.225,6.007,6.365,9.287,9.23c1.12,0.973,3.079,1.455,4.589,1.33C342.77,726.559,344.468,726.211,344.141,723.365
		 M259.089,665.682c2.124,2.148,4.17,0.215,4.441-0.992c1.11-2.395,0.107-6.795-1.862-11.42c-1.617-3.766-3.168-7.592-5.055-11.227
		c-13.021-25.402-19.991-52.617-25.117-80.502c-1.223-6.672-9.828-10.002-8.821-0.521c1.05,5.771,1.219,10.289,3.188,18.266
		c4.063,16.558,9,32.965,14.67,49.047c3.812,10.826,9.398,21.018,14.438,31.383C256.331,662.521,257.232,663.104,259.089,665.682
		 M270.049,654.836c4.61-0.645,5.29-1.639,3.838-5.271c-0.246-0.613-0.538-1.207-0.84-1.801
		c-11.445-22.834-20.538-46.529-25.977-71.568c-0.471-2.129-2.589-5.439-5.729-5.398c-2.017,0.199-3.05,1.51-2.876,4.181
		c0.189,2.901,0.327,4.149,1.079,6.938c4.119,15.348,7.706,30.877,14.408,45.414c3.397,7.311,6.468,14.818,10.167,21.99
		C265.279,651.592,267.608,655,270.049,654.836 M301.413,697.016c-1.857,2.416-1.376,6.785,1.959,10.295
		c9.661,10.191,19.331,20.352,29.169,30.359c2.298,2.324,4.329,3.727,7.169,5.373c2.859,1.67,5.986,0.104,5.208-3.07
		c-0.731-2.957-2.398-5.453-4.44-7.561c-11.568-12.023-23.443-23.74-35.273-35.551C304.514,696.146,302.145,695.266,301.413,697.016
		"/>
	<path fill-rule="evenodd" clip-rule="evenodd" d="M213.134,455.686c-3.813,22.656-6.141,45.501-5.752,68.469
		c0.368,22.969,2.911,45.758,9.148,68.025c2.128,7.514,3.33,15.316,5.899,22.666c7.138,20.414,15.277,40.4,26.896,58.787
		c4.319,6.836,7.998,14.092,12.669,20.672c14.009,19.676,28.734,38.742,47.042,54.775c16.081,14.061,33.528,25.953,52.704,35.326
		c6.078,3.324,12.08,5.482,13.39,6.006c6.417,2.578,3.996,1.709,10.72,3.602c0.706,0.225,1.116,1.842-3.53,0.799
		c-5.152-1.166-13.527-4.143-20.148-7.234c-13.446-7.145-26.479-15.154-38.993-23.832c-26.56-18.391-46.575-43.061-64.841-69.381
		c-13.702-19.74-24.447-40.973-33.228-63.244c-9.271-23.568-15.729-47.901-18.787-73.028c-1.29-10.509-1.403-21.167-2.042-31.759
		c-1.679-28.324,1.781-56.102,8.853-83.496c0.946-3.592,3.438-12.628,4.809-16.071c1.499-3.73,2.368-1.5,2.368-1.5
		C219.83,428.482,216.238,439.027,213.134,455.686"/>
</g>
</svg>
